<svg width="65" height="64" viewBox="0 0 65 64" fill="none" xmlns="http://www.w3.org/2000/svg">
<path d="M24.3359 8H11.0026C9.52984 8 8.33594 9.19391 8.33594 10.6667V29.3333C8.33594 30.8061 9.52984 32 11.0026 32H24.3359C25.8087 32 27.0026 30.8061 27.0026 29.3333V10.6667C27.0026 9.19391 25.8087 8 24.3359 8Z" stroke="white" stroke-width="5.33333" stroke-linecap="round" stroke-linejoin="round"/>
<path d="M53.6693 8H40.3359C38.8632 8 37.6693 9.19391 37.6693 10.6667V18.6667C37.6693 20.1394 38.8632 21.3333 40.3359 21.3333H53.6693C55.142 21.3333 56.3359 20.1394 56.3359 18.6667V10.6667C56.3359 9.19391 55.142 8 53.6693 8Z" stroke="white" stroke-width="5.33333" stroke-linecap="round" stroke-linejoin="round"/>
<path d="M53.6693 32H40.3359C38.8632 32 37.6693 33.1939 37.6693 34.6667V53.3333C37.6693 54.8061 38.8632 56 40.3359 56H53.6693C55.142 56 56.3359 54.8061 56.3359 53.3333V34.6667C56.3359 33.1939 55.142 32 53.6693 32Z" stroke="white" stroke-width="5.33333" stroke-linecap="round" stroke-linejoin="round"/>
<path d="M24.3359 42.6667H11.0026C9.52984 42.6667 8.33594 43.8606 8.33594 45.3333V53.3333C8.33594 54.8061 9.52984 56 11.0026 56H24.3359C25.8087 56 27.0026 54.8061 27.0026 53.3333V45.3333C27.0026 43.8606 25.8087 42.6667 24.3359 42.6667Z" stroke="white" stroke-width="5.33333" stroke-linecap="round" stroke-linejoin="round"/>
</svg>
