<svg width="65" height="64" viewBox="0 0 65 64" fill="none" xmlns="http://www.w3.org/2000/svg">
<path d="M43.3299 5.33301L37.1965 11.4663C35.7307 12.9618 34.9097 14.9723 34.9097 17.0663C34.9097 19.1604 35.7307 21.1709 37.1965 22.6663L41.9965 27.4663C43.492 28.9322 45.5025 29.7532 47.5965 29.7532C49.6906 29.7532 51.7011 28.9322 53.1965 27.4663L59.3299 21.333M40.6632 39.9997L9.4632 8.79967C8.39888 9.84249 7.55335 11.0872 6.97612 12.4609C6.39888 13.8346 6.10156 15.3096 6.10156 16.7997C6.10156 18.2897 6.39888 19.7648 6.97612 21.1385C7.55335 22.5122 8.39888 23.7569 9.4632 24.7997L28.9299 44.2663C30.7965 46.133 34.2632 46.133 36.3965 44.2663L40.6632 39.9997ZM40.6632 39.9997L59.3299 58.6663M6.2632 58.133L23.3299 41.333M51.3299 13.333L32.6632 31.9997" stroke="white" stroke-width="5.33333" stroke-linecap="round" stroke-linejoin="round"/>
</svg>
